<?xml version="1.0" encoding="UTF-8"?>
<svg xmlns="http://www.w3.org/2000/svg" viewBox="0 0 533.5 544.3">
  <path fill="#EA4335" d="M533.5 278.4c0-17.4-1.6-34.1-4.7-50.3H272v95.2h147c-6.3 34.2-25 63.2-53.4 82.6v68h86.5c50.7-46.7 81.4-115.5 81.4-195.5z"/>
  <path fill="#34A853" d="M272 544.3c72.9 0 134.2-24.1 178.9-65.4l-86.5-68c-24.1 16.2-55 25.8-92.4 25.8-70.9 0-131-47.8-152.5-112.1H31.8v70.5C76.3 486 167.8 544.3 272 544.3z"/>
  <path fill="#4A90E2" d="M119.5 324.6c-10-30.2-10-62.7 0-92.9V161.2H31.8c-43.9 87.7-43.9 191.8 0 279.5l87.7-70.5z"/>
  <path fill="#FBBC05" d="M272 107.7c39.6-.6 77.8 14.7 106.8 42.7l80.1-80.1C407.8 24 346.1-.1 272 0 167.8 0 76.3 58.3 31.8 164.8l87.7 70.5C141 170.9 201.1 123.1 272 123.1c0-.2 0-.4 0-.6z"/>
</svg>

